<svg xmlns="http://www.w3.org/2000/svg" xmlns:xlink="http://www.w3.org/1999/xlink" width="500" zoomAndPan="magnify" viewBox="0 0 375 374.999991" height="500" preserveAspectRatio="xMidYMid meet" version="1.0"><defs><g/><clipPath id="e00c598b35"><path d="M 139.15625 84.457031 L 186 84.457031 L 186 193.957031 L 139.15625 193.957031 Z M 139.15625 84.457031 " clip-rule="nonzero"/></clipPath><clipPath id="cfe28b269c"><path d="M 189 84.457031 L 235.90625 84.457031 L 235.90625 193.957031 L 189 193.957031 Z M 189 84.457031 " clip-rule="nonzero"/></clipPath></defs><rect x="-37.5" width="450" fill="#ffffff" y="-37.499999" height="449.999989" fill-opacity="1"/><rect x="-37.5" width="450" fill="#f8f8f8" y="-37.499999" height="449.999989" fill-opacity="1"/><g clip-path="url(#e00c598b35)"><path fill="#b30101" d="M 139.148438 111.351562 L 139.148438 167.171875 L 185.707031 194.054688 L 185.707031 149.230469 L 175.746094 139.261719 L 185.707031 129.296875 L 185.707031 84.464844 Z M 173.664062 173.191406 L 151.191406 160.21875 L 151.191406 145.285156 L 164.734375 145.285156 L 173.664062 154.222656 Z M 173.664062 124.308594 L 164.734375 133.238281 L 151.191406 133.238281 L 151.191406 118.3125 L 173.664062 105.328125 Z M 173.664062 124.308594 " fill-opacity="1" fill-rule="nonzero"/></g><g clip-path="url(#cfe28b269c)"><path fill="#0ca39f" d="M 235.824219 111.351562 L 235.824219 167.171875 L 223.777344 174.128906 L 223.777344 118.3125 L 218.566406 115.300781 L 218.566406 177.140625 L 206.519531 184.09375 L 206.519531 108.339844 L 201.304688 105.328125 L 201.304688 187.105469 L 189.261719 194.054688 L 189.261719 84.464844 Z M 235.824219 111.351562 " fill-opacity="1" fill-rule="nonzero"/></g><g fill="#135782" fill-opacity="1"><g transform="translate(47.264512, 215.956846)"><g><path d="M 2.453125 -33.828125 L 12.953125 -33.828125 C 16.128906 -33.828125 18.660156 -33.148438 20.546875 -31.796875 C 22.429688 -30.441406 23.375 -28.25 23.375 -25.21875 C 23.375 -21.820312 21.960938 -19.398438 19.140625 -17.953125 C 23.953125 -17.109375 26.359375 -14.269531 26.359375 -9.4375 C 26.359375 -6.59375 25.375 -4.304688 23.40625 -2.578125 C 21.4375 -0.859375 18.734375 0 15.296875 0 L 2.453125 0 Z M 10.171875 -20.578125 L 10.78125 -20.578125 C 12.5 -20.578125 13.78125 -20.878906 14.625 -21.484375 C 15.476562 -22.085938 15.90625 -23.070312 15.90625 -24.4375 C 15.90625 -26.726562 14.195312 -27.875 10.78125 -27.875 L 10.171875 -27.875 Z M 10.171875 -5.9375 L 12.59375 -5.9375 C 16.363281 -5.9375 18.25 -7.195312 18.25 -9.71875 C 18.25 -11.21875 17.773438 -12.296875 16.828125 -12.953125 C 15.890625 -13.609375 14.476562 -13.9375 12.59375 -13.9375 L 10.171875 -13.9375 Z M 10.171875 -5.9375 "/></g></g></g><g fill="#135782" fill-opacity="1"><g transform="translate(71.367316, 215.956846)"><g><path d="M 9.3125 -21.03125 L 9.3125 -11.03125 C 9.3125 -8.945312 9.625 -7.46875 10.25 -6.59375 C 10.875 -5.71875 11.9375 -5.28125 13.4375 -5.28125 C 14.945312 -5.28125 16.015625 -5.71875 16.640625 -6.59375 C 17.273438 -7.46875 17.59375 -8.945312 17.59375 -11.03125 L 17.59375 -21.03125 L 24.84375 -21.03125 L 24.84375 -9.265625 C 24.84375 -5.765625 23.929688 -3.242188 22.109375 -1.703125 C 20.296875 -0.160156 17.40625 0.609375 13.4375 0.609375 C 9.476562 0.609375 6.585938 -0.160156 4.765625 -1.703125 C 2.953125 -3.242188 2.046875 -5.765625 2.046875 -9.265625 L 2.046875 -21.03125 Z M 9.3125 -21.03125 "/></g></g></g><g fill="#135782" fill-opacity="1"><g transform="translate(95.060193, 215.956846)"><g><path d="M 11.609375 -21.640625 C 12.804688 -21.640625 13.992188 -21.503906 15.171875 -21.234375 C 16.347656 -20.960938 17.222656 -20.691406 17.796875 -20.421875 L 18.65625 -20.015625 L 16.28125 -15.25 C 14.632812 -16.125 13.078125 -16.5625 11.609375 -16.5625 C 10.785156 -16.5625 10.203125 -16.472656 9.859375 -16.296875 C 9.515625 -16.117188 9.34375 -15.785156 9.34375 -15.296875 C 9.34375 -15.179688 9.359375 -15.066406 9.390625 -14.953125 C 9.421875 -14.847656 9.472656 -14.75 9.546875 -14.65625 C 9.628906 -14.5625 9.703125 -14.476562 9.765625 -14.40625 C 9.835938 -14.34375 9.957031 -14.269531 10.125 -14.1875 C 10.289062 -14.101562 10.421875 -14.039062 10.515625 -14 C 10.609375 -13.957031 10.765625 -13.894531 10.984375 -13.8125 C 11.203125 -13.726562 11.363281 -13.664062 11.46875 -13.625 C 11.582031 -13.59375 11.769531 -13.535156 12.03125 -13.453125 C 12.289062 -13.367188 12.488281 -13.3125 12.625 -13.28125 C 13.476562 -13.039062 14.21875 -12.769531 14.84375 -12.46875 C 15.46875 -12.164062 16.128906 -11.753906 16.828125 -11.234375 C 17.523438 -10.710938 18.066406 -10.054688 18.453125 -9.265625 C 18.835938 -8.472656 19.03125 -7.570312 19.03125 -6.5625 C 19.03125 -1.78125 15.707031 0.609375 9.0625 0.609375 C 7.5625 0.609375 6.132812 0.378906 4.78125 -0.078125 C 3.425781 -0.546875 2.445312 -1.007812 1.84375 -1.46875 L 0.9375 -2.21875 L 3.890625 -7.171875 C 4.109375 -6.984375 4.394531 -6.757812 4.75 -6.5 C 5.101562 -6.238281 5.742188 -5.878906 6.671875 -5.421875 C 7.609375 -4.972656 8.421875 -4.75 9.109375 -4.75 C 10.609375 -4.75 11.359375 -5.253906 11.359375 -6.265625 C 11.359375 -6.734375 11.164062 -7.097656 10.78125 -7.359375 C 10.394531 -7.617188 9.742188 -7.910156 8.828125 -8.234375 C 7.921875 -8.566406 7.207031 -8.867188 6.6875 -9.140625 C 5.375 -9.828125 4.332031 -10.597656 3.5625 -11.453125 C 2.800781 -12.316406 2.421875 -13.460938 2.421875 -14.890625 C 2.421875 -17.015625 3.242188 -18.671875 4.890625 -19.859375 C 6.546875 -21.046875 8.785156 -21.640625 11.609375 -21.640625 Z M 11.609375 -21.640625 "/></g></g></g><g fill="#135782" fill-opacity="1"><g transform="translate(112.030355, 215.956846)"><g><path d="M 3.15625 -32.75 C 4 -33.601562 5.007812 -34.03125 6.1875 -34.03125 C 7.363281 -34.03125 8.375 -33.601562 9.21875 -32.75 C 10.070312 -31.90625 10.5 -30.894531 10.5 -29.71875 C 10.5 -28.550781 10.070312 -27.539062 9.21875 -26.6875 C 8.375 -25.84375 7.363281 -25.421875 6.1875 -25.421875 C 5.007812 -25.421875 4 -25.84375 3.15625 -26.6875 C 2.3125 -27.539062 1.890625 -28.550781 1.890625 -29.71875 C 1.890625 -30.894531 2.3125 -31.90625 3.15625 -32.75 Z M 2.453125 -21.03125 L 2.453125 0 L 9.71875 0 L 9.71875 -21.03125 Z M 2.453125 -21.03125 "/></g></g></g><g fill="#135782" fill-opacity="1"><g transform="translate(121.212, 215.956846)"><g><path d="M 2.453125 0 L 2.453125 -21.03125 L 9.71875 -21.03125 L 9.71875 -18.8125 L 9.796875 -18.8125 C 11.679688 -20.695312 13.691406 -21.640625 15.828125 -21.640625 C 16.867188 -21.640625 17.898438 -21.503906 18.921875 -21.234375 C 19.941406 -20.960938 20.921875 -20.539062 21.859375 -19.96875 C 22.804688 -19.394531 23.570312 -18.582031 24.15625 -17.53125 C 24.75 -16.476562 25.046875 -15.253906 25.046875 -13.859375 L 25.046875 0 L 17.796875 0 L 17.796875 -11.890625 C 17.796875 -12.984375 17.445312 -13.9375 16.75 -14.75 C 16.050781 -15.570312 15.140625 -15.984375 14.015625 -15.984375 C 12.921875 -15.984375 11.929688 -15.5625 11.046875 -14.71875 C 10.160156 -13.875 9.71875 -12.929688 9.71875 -11.890625 L 9.71875 0 Z M 2.453125 0 "/></g></g></g><g fill="#135782" fill-opacity="1"><g transform="translate(145.109843, 215.956846)"><g><path d="M 23.734375 -9.515625 L 8.484375 -9.515625 C 8.484375 -8.035156 8.960938 -6.941406 9.921875 -6.234375 C 10.878906 -5.523438 11.914062 -5.171875 13.03125 -5.171875 C 14.207031 -5.171875 15.132812 -5.328125 15.8125 -5.640625 C 16.5 -5.953125 17.28125 -6.570312 18.15625 -7.5 L 23.40625 -4.875 C 21.21875 -1.21875 17.582031 0.609375 12.5 0.609375 C 9.332031 0.609375 6.613281 -0.472656 4.34375 -2.640625 C 2.070312 -4.816406 0.9375 -7.4375 0.9375 -10.5 C 0.9375 -13.5625 2.070312 -16.179688 4.34375 -18.359375 C 6.613281 -20.546875 9.332031 -21.640625 12.5 -21.640625 C 15.832031 -21.640625 18.546875 -20.675781 20.640625 -18.75 C 22.734375 -16.820312 23.78125 -14.070312 23.78125 -10.5 C 23.78125 -10.007812 23.765625 -9.679688 23.734375 -9.515625 Z M 8.6875 -13.53125 L 16.6875 -13.53125 C 16.519531 -14.625 16.085938 -15.460938 15.390625 -16.046875 C 14.691406 -16.640625 13.796875 -16.9375 12.703125 -16.9375 C 11.503906 -16.9375 10.550781 -16.617188 9.84375 -15.984375 C 9.132812 -15.359375 8.75 -14.539062 8.6875 -13.53125 Z M 8.6875 -13.53125 "/></g></g></g><g fill="#135782" fill-opacity="1"><g transform="translate(166.630136, 215.956846)"><g><path d="M 11.609375 -21.640625 C 12.804688 -21.640625 13.992188 -21.503906 15.171875 -21.234375 C 16.347656 -20.960938 17.222656 -20.691406 17.796875 -20.421875 L 18.65625 -20.015625 L 16.28125 -15.25 C 14.632812 -16.125 13.078125 -16.5625 11.609375 -16.5625 C 10.785156 -16.5625 10.203125 -16.472656 9.859375 -16.296875 C 9.515625 -16.117188 9.34375 -15.785156 9.34375 -15.296875 C 9.34375 -15.179688 9.359375 -15.066406 9.390625 -14.953125 C 9.421875 -14.847656 9.472656 -14.75 9.546875 -14.65625 C 9.628906 -14.5625 9.703125 -14.476562 9.765625 -14.40625 C 9.835938 -14.34375 9.957031 -14.269531 10.125 -14.1875 C 10.289062 -14.101562 10.421875 -14.039062 10.515625 -14 C 10.609375 -13.957031 10.765625 -13.894531 10.984375 -13.8125 C 11.203125 -13.726562 11.363281 -13.664062 11.46875 -13.625 C 11.582031 -13.59375 11.769531 -13.535156 12.03125 -13.453125 C 12.289062 -13.367188 12.488281 -13.3125 12.625 -13.28125 C 13.476562 -13.039062 14.21875 -12.769531 14.84375 -12.46875 C 15.46875 -12.164062 16.128906 -11.753906 16.828125 -11.234375 C 17.523438 -10.710938 18.066406 -10.054688 18.453125 -9.265625 C 18.835938 -8.472656 19.03125 -7.570312 19.03125 -6.5625 C 19.03125 -1.78125 15.707031 0.609375 9.0625 0.609375 C 7.5625 0.609375 6.132812 0.378906 4.78125 -0.078125 C 3.425781 -0.546875 2.445312 -1.007812 1.84375 -1.46875 L 0.9375 -2.21875 L 3.890625 -7.171875 C 4.109375 -6.984375 4.394531 -6.757812 4.75 -6.5 C 5.101562 -6.238281 5.742188 -5.878906 6.671875 -5.421875 C 7.609375 -4.972656 8.421875 -4.75 9.109375 -4.75 C 10.609375 -4.75 11.359375 -5.253906 11.359375 -6.265625 C 11.359375 -6.734375 11.164062 -7.097656 10.78125 -7.359375 C 10.394531 -7.617188 9.742188 -7.910156 8.828125 -8.234375 C 7.921875 -8.566406 7.207031 -8.867188 6.6875 -9.140625 C 5.375 -9.828125 4.332031 -10.597656 3.5625 -11.453125 C 2.800781 -12.316406 2.421875 -13.460938 2.421875 -14.890625 C 2.421875 -17.015625 3.242188 -18.671875 4.890625 -19.859375 C 6.546875 -21.046875 8.785156 -21.640625 11.609375 -21.640625 Z M 11.609375 -21.640625 "/></g></g></g><g fill="#135782" fill-opacity="1"><g transform="translate(183.600293, 215.956846)"><g><path d="M 11.609375 -21.640625 C 12.804688 -21.640625 13.992188 -21.503906 15.171875 -21.234375 C 16.347656 -20.960938 17.222656 -20.691406 17.796875 -20.421875 L 18.65625 -20.015625 L 16.28125 -15.25 C 14.632812 -16.125 13.078125 -16.5625 11.609375 -16.5625 C 10.785156 -16.5625 10.203125 -16.472656 9.859375 -16.296875 C 9.515625 -16.117188 9.34375 -15.785156 9.34375 -15.296875 C 9.34375 -15.179688 9.359375 -15.066406 9.390625 -14.953125 C 9.421875 -14.847656 9.472656 -14.75 9.546875 -14.65625 C 9.628906 -14.5625 9.703125 -14.476562 9.765625 -14.40625 C 9.835938 -14.34375 9.957031 -14.269531 10.125 -14.1875 C 10.289062 -14.101562 10.421875 -14.039062 10.515625 -14 C 10.609375 -13.957031 10.765625 -13.894531 10.984375 -13.8125 C 11.203125 -13.726562 11.363281 -13.664062 11.46875 -13.625 C 11.582031 -13.59375 11.769531 -13.535156 12.03125 -13.453125 C 12.289062 -13.367188 12.488281 -13.3125 12.625 -13.28125 C 13.476562 -13.039062 14.21875 -12.769531 14.84375 -12.46875 C 15.46875 -12.164062 16.128906 -11.753906 16.828125 -11.234375 C 17.523438 -10.710938 18.066406 -10.054688 18.453125 -9.265625 C 18.835938 -8.472656 19.03125 -7.570312 19.03125 -6.5625 C 19.03125 -1.78125 15.707031 0.609375 9.0625 0.609375 C 7.5625 0.609375 6.132812 0.378906 4.78125 -0.078125 C 3.425781 -0.546875 2.445312 -1.007812 1.84375 -1.46875 L 0.9375 -2.21875 L 3.890625 -7.171875 C 4.109375 -6.984375 4.394531 -6.757812 4.75 -6.5 C 5.101562 -6.238281 5.742188 -5.878906 6.671875 -5.421875 C 7.609375 -4.972656 8.421875 -4.75 9.109375 -4.75 C 10.609375 -4.75 11.359375 -5.253906 11.359375 -6.265625 C 11.359375 -6.734375 11.164062 -7.097656 10.78125 -7.359375 C 10.394531 -7.617188 9.742188 -7.910156 8.828125 -8.234375 C 7.921875 -8.566406 7.207031 -8.867188 6.6875 -9.140625 C 5.375 -9.828125 4.332031 -10.597656 3.5625 -11.453125 C 2.800781 -12.316406 2.421875 -13.460938 2.421875 -14.890625 C 2.421875 -17.015625 3.242188 -18.671875 4.890625 -19.859375 C 6.546875 -21.046875 8.785156 -21.640625 11.609375 -21.640625 Z M 11.609375 -21.640625 "/></g></g></g><g fill="#135782" fill-opacity="1"><g transform="translate(200.570449, 215.956846)"><g><path d="M 2.453125 0 L 2.453125 -21.03125 L 9.71875 -21.03125 L 9.71875 -18.8125 L 9.796875 -18.8125 C 11.679688 -20.695312 13.691406 -21.640625 15.828125 -21.640625 C 17.359375 -21.640625 18.789062 -21.328125 20.125 -20.703125 C 21.46875 -20.078125 22.484375 -19.109375 23.171875 -17.796875 C 25.296875 -20.359375 27.617188 -21.640625 30.140625 -21.640625 C 32.378906 -21.640625 34.300781 -21.007812 35.90625 -19.75 C 37.519531 -18.5 38.328125 -16.535156 38.328125 -13.859375 L 38.328125 0 L 31.078125 0 L 31.078125 -11.890625 C 31.078125 -13.015625 30.769531 -13.953125 30.15625 -14.703125 C 29.539062 -15.453125 28.617188 -15.828125 27.390625 -15.828125 C 26.316406 -15.828125 25.5 -15.503906 24.9375 -14.859375 C 24.382812 -14.222656 24.082031 -13.453125 24.03125 -12.546875 L 24.03125 0 L 16.765625 0 L 16.765625 -11.890625 C 16.765625 -13.015625 16.457031 -13.953125 15.84375 -14.703125 C 15.226562 -15.453125 14.304688 -15.828125 13.078125 -15.828125 C 11.953125 -15.828125 11.109375 -15.476562 10.546875 -14.78125 C 9.992188 -14.082031 9.71875 -13.253906 9.71875 -12.296875 L 9.71875 0 Z M 2.453125 0 "/></g></g></g><g fill="#135782" fill-opacity="1"><g transform="translate(237.74976, 215.956846)"><g><path d="M 3.890625 -2.609375 C 1.921875 -4.753906 0.9375 -7.382812 0.9375 -10.5 C 0.9375 -13.613281 1.921875 -16.25 3.890625 -18.40625 C 5.859375 -20.5625 8.359375 -21.640625 11.390625 -21.640625 C 14.179688 -21.640625 16.476562 -20.769531 18.28125 -19.03125 L 18.28125 -21.03125 L 25.546875 -21.03125 L 25.546875 0 L 18.375 0 L 18.375 -2.375 L 18.28125 -2.375 C 16.476562 -0.382812 14.179688 0.609375 11.390625 0.609375 C 8.359375 0.609375 5.859375 -0.460938 3.890625 -2.609375 Z M 10.0625 -14.0625 C 9.125 -13.132812 8.65625 -11.945312 8.65625 -10.5 C 8.65625 -9.050781 9.101562 -7.867188 10 -6.953125 C 10.90625 -6.035156 12.097656 -5.578125 13.578125 -5.578125 C 14.992188 -5.578125 16.160156 -6.039062 17.078125 -6.96875 C 17.992188 -7.894531 18.453125 -9.070312 18.453125 -10.5 C 18.453125 -11.945312 17.976562 -13.132812 17.03125 -14.0625 C 16.09375 -14.988281 14.941406 -15.453125 13.578125 -15.453125 C 12.179688 -15.453125 11.007812 -14.988281 10.0625 -14.0625 Z M 10.0625 -14.0625 "/></g></g></g><g fill="#135782" fill-opacity="1"><g transform="translate(262.549426, 215.956846)"><g><path d="M 2.453125 0 L 2.453125 -21.03125 L 9.71875 -21.03125 L 9.71875 -18.8125 L 9.796875 -18.8125 C 11.679688 -20.695312 13.691406 -21.640625 15.828125 -21.640625 C 17.359375 -21.640625 18.789062 -21.328125 20.125 -20.703125 C 21.46875 -20.078125 22.484375 -19.109375 23.171875 -17.796875 C 25.296875 -20.359375 27.617188 -21.640625 30.140625 -21.640625 C 32.378906 -21.640625 34.300781 -21.007812 35.90625 -19.75 C 37.519531 -18.5 38.328125 -16.535156 38.328125 -13.859375 L 38.328125 0 L 31.078125 0 L 31.078125 -11.890625 C 31.078125 -13.015625 30.769531 -13.953125 30.15625 -14.703125 C 29.539062 -15.453125 28.617188 -15.828125 27.390625 -15.828125 C 26.316406 -15.828125 25.5 -15.503906 24.9375 -14.859375 C 24.382812 -14.222656 24.082031 -13.453125 24.03125 -12.546875 L 24.03125 0 L 16.765625 0 L 16.765625 -11.890625 C 16.765625 -13.015625 16.457031 -13.953125 15.84375 -14.703125 C 15.226562 -15.453125 14.304688 -15.828125 13.078125 -15.828125 C 11.953125 -15.828125 11.109375 -15.476562 10.546875 -14.78125 C 9.992188 -14.082031 9.71875 -13.253906 9.71875 -12.296875 L 9.71875 0 Z M 2.453125 0 "/></g></g></g><g fill="#135782" fill-opacity="1"><g transform="translate(299.728737, 215.956846)"><g><path d="M 3.890625 -2.609375 C 1.921875 -4.753906 0.9375 -7.382812 0.9375 -10.5 C 0.9375 -13.613281 1.921875 -16.25 3.890625 -18.40625 C 5.859375 -20.5625 8.359375 -21.640625 11.390625 -21.640625 C 14.179688 -21.640625 16.476562 -20.769531 18.28125 -19.03125 L 18.28125 -21.03125 L 25.546875 -21.03125 L 25.546875 0 L 18.375 0 L 18.375 -2.375 L 18.28125 -2.375 C 16.476562 -0.382812 14.179688 0.609375 11.390625 0.609375 C 8.359375 0.609375 5.859375 -0.460938 3.890625 -2.609375 Z M 10.0625 -14.0625 C 9.125 -13.132812 8.65625 -11.945312 8.65625 -10.5 C 8.65625 -9.050781 9.101562 -7.867188 10 -6.953125 C 10.90625 -6.035156 12.097656 -5.578125 13.578125 -5.578125 C 14.992188 -5.578125 16.160156 -6.039062 17.078125 -6.96875 C 17.992188 -7.894531 18.453125 -9.070312 18.453125 -10.5 C 18.453125 -11.945312 17.976562 -13.132812 17.03125 -14.0625 C 16.09375 -14.988281 14.941406 -15.453125 13.578125 -15.453125 C 12.179688 -15.453125 11.007812 -14.988281 10.0625 -14.0625 Z M 10.0625 -14.0625 "/></g></g></g></svg>